#!OML:ASF H:\Terrain\Patient Classification 1\Animal2\Wednesday\Animal2.ASF
:FULLY-SPECIFIED
:DEGREES
3089
root 28.7822 16.8302 -19.9148 -161.682 47.6172 -173.231
lowerback 17.2449 -2.9048 -1.07414
upperback 5.60094 -3.38341 2.01627
thorax -3.46464 -1.47701 3.39129
lowerneck -3.69448 -11.8977 6.94565
upperneck -8.31079 -15.9573 -0.434738
head -2.67277 -8.08112 -1.00355
rclavicle 1.53064e-013 -4.92986e-014
rhumerus -22.0259 16.6377 -89.8612
rradius 130.578
rwrist -2.54867
rhand -19.7285 10.1508
rfingers 7.12502
rthumb 6.60193 -19.7262
lclavicle 1.53064e-013 -4.92986e-014
lhumerus -24.9105 -10.8686 83.2762
lradius 137.187
lwrist 32.0951
lhand -24.0629 44.1055
lfingers 7.12502
lthumb 2.41664 -285.928
rfemur -37.2571 14.4612 11.8426
rtibia 45.9095
rfoot -27.4273 -1.40579
rtoes -17.3443
lfemur -43.3451 -4.03923 -5.21725
ltibia 49.6869
lfoot -19.6165 -7.48726
ltoes -28.1799
3090
root 28.7298 16.85 -20.0089 -161.38 49.0542 -172.887
lowerback 17.2298 -2.69665 -1.92217
upperback 5.66314 -3.20637 2.74972
thorax -3.30317 -1.4 4.61437
lowerneck -4.79721 -12.6446 5.12554
upperneck -7.12912 -16.9712 0.0135709
head -1.9094 -8.53881 -0.70754
rclavicle -5.96354e-015 2.26615e-014
rhumerus -21.6645 17.472 -88.8345
rradius 130.439
rwrist -2.91846
rhand -21.5168 10.7671
rfingers 7.12502
rthumb 4.87533 -19.1568
lclavicle -5.96354e-015 2.26615e-014
lhumerus -24.6848 -10.194 84.2292
lradius 137.157
lwrist 32.8896
lhand -24.2652 43.8551
lfingers 7.12502
lthumb 2.22127 -286.177
rfemur -37.217 15.0869 11.3364
rtibia 45.2342
rfoot -27.2234 -0.872885
rtoes -17.7044
lfemur -42.7891 -3.19875 -5.73941
ltibia 49.6988
lfoot -19.7304 -7.05741
ltoes -27.6272
3091
root 28.6761 16.8754 -20.0997 -160.942 50.3884 -172.459
lowerback 16.9159 -2.7705 -1.40019
upperback 5.86225 -3.25197 2.14434
thorax -2.99391 -1.42462 3.65955
lowerneck -5.1355 -13.2504 5.66435
upperneck -6.90285 -17.7934 0.817732
head -1.77291 -8.97501 -0.565507
rclavicle 1.0297e-013 -6.36111e-015
rhumerus -21.2393 17.1806 -90.3362
rradius 129.978
rwrist -2.29782
rhand -23.4413 11.4246
rfingers 7.12502
rthumb 3.01691 -18.5338
lclavicle 1.0297e-013 -6.36111e-015
lhumerus -24.2244 -10.4388 82.889
lradius 137.236
lwrist 34.0588
lhand -24.2796 44.0698
lfingers 7.12502
lthumb 2.2073 -285.962
rfemur -37.2496 15.6309 10.9199
rtibia 44.5465
rfoot -26.9288 -0.394502
rtoes -17.7346
lfemur -42.3408 -2.35312 -6.17575
ltibia 49.6785
lfoot -19.9924 -6.83308
ltoes -27.5847
3092
root 28.6208 16.907 -20.1901 -160.488 51.6832 -172.151
lowerback 16.2434 -2.8572 -0.0496529
upperback 6.163 -3.21759 0.872878
thorax -2.48399 -1.3928 1.5113
lowerneck -5.49025 -14.0295 6.99688
upperneck -6.7544 -18.8778 1.76703
head -1.72931 -9.55772 -0.480792
rclavicle -5.04913e-014 3.65764e-014
rhumerus -20.7168 15.6729 -91.9663
rradius 129.878
rwrist -1.87667
rhand -25.2307 11.9366
rfingers 7.12502
rthumb 1.28871 -18.0392
lclavicle -5.04913e-014 3.65764e-014
lhumerus -23.4262 -11.5103 80.4983
lradius 137.408
lwrist 35.7456
lhand -24.5316 44.5114
lfingers 7.12502
lthumb 1.96398 -285.518
rfemur -37.4421 15.9943 10.4114
rtibia 43.9131
rfoot -26.7843 0.509336
rtoes -16.3409
lfemur -42.0232 -1.61449 -6.66097
ltibia 49.6355
lfoot -20.1893 -6.5806
ltoes -27.6172
3093
root 28.5617 16.9261 -20.2857 -159.995 53.0169 -171.937
lowerback 16.5552 -3.05494 -1.02649
upperback 5.6564 -3.65217 1.38867
thorax -3.07218 -1.63228 2.71275
lowerneck -5.49513 -14.2109 5.79481
upperneck -5.94593 -19.0971 2.15486
head -1.30811 -9.63559 -0.256423
rclavicle 3.26007e-014 -2.06736e-014
rhumerus -21.173 16.8767 -91.0556
rradius 130.311
rwrist -2.49627
rhand -27.3572 12.5223
rfingers 7.12502
rthumb -0.765127 -17.456
lclavicle 3.26007e-014 -2.06736e-014
lhumerus -24.5983 -10.1213 80.7482
lradius 137.742
lwrist 36.8925
lhand -25.1808 44.3896
lfingers 7.12502
lthumb 1.33693 -285.635
rfemur -37.7888 16.3252 9.75267
rtibia 43.3614
rfoot -26.7917 1.2376
rtoes -15.9658
lfemur -41.8648 -0.880959 -7.2591
ltibia 49.6083
lfoot -20.1901 -6.31504
ltoes -26.9747
3094
root 28.5043 16.9312 -20.3847 -159.457 54.2915 -171.514
lowerback 16.4393 -3.05444 -1.05901
upperback 5.597 -3.66146 1.55774
thorax -3.05936 -1.64364 2.90639
lowerneck -5.71764 -14.515 3.25429
upperneck -5.41016 -19.3718 4.46236
head -0.62114 -9.72409 0.634778
rclavicle 5.84427e-014 -1.66979e-014
rhumerus -21.3274 16.5922 -89.4456
rradius 131.482
rwrist -3.72743
rhand -29.9498 13.0837
rfingers 7.12502
rthumb -3.26894 -16.871
lclavicle 5.84427e-014 -1.66979e-014
lhumerus -24.6689 -10.0489 80.8148
lradius 137.798
lwrist 37.5004
lhand -25.2447 44.1597
lfingers 7.12502
lthumb 1.27526 -285.864
rfemur -37.9555 16.7514 9.25438
rtibia 42.892
rfoot -26.9642 1.39777
rtoes -16.6598
lfemur -41.6119 -0.246346 -7.7201
ltibia 49.5946
lfoot -20.3076 -5.64799
ltoes -27.1365
3095
root 28.4522 16.9425 -20.4822 -159.034 55.419 -170.916
lowerback 16.6841 -2.96494 -0.915001
upperback 5.49525 -3.51266 1.82388
thorax -3.29641 -1.56877 3.09627
lowerneck -4.78603 -15.7548 7.59659
upperneck -7.79328 -21.2115 0.533235
head -2.48803 -10.7406 -0.725513
rclavicle -4.65156e-014 -1.90833e-014
rhumerus -21.0908 14.7683 -89.1363
rradius 132.307
rwrist -4.41415
rhand -30.7386 13.4062
rfingers 7.12502
rthumb -4.03074 -16.5354
lclavicle -4.65156e-014 -1.90833e-014
lhumerus -24.8326 -10.3753 81.2495
lradius 137.925
lwrist 37.7637
lhand -24.9685 44.1408
lfingers 7.12502
lthumb 1.54198 -285.885
rfemur -37.8015 17.0662 9.07707
rtibia 42.469
rfoot -27.0859 1.59239
rtoes -16.2554
lfemur -41.0798 0.12923 -8.00569
ltibia 49.578
lfoot -20.4834 -4.70978
ltoes -27.8724
3096
root 28.4044 16.9638 -20.5733 -158.759 56.517 -170.579
lowerback 16.9508 -3.00701 -1.14501
upperback 5.32487 -3.60562 2.03557
thorax -3.5827 -1.61586 3.48908
lowerneck -5.45873 -15.9108 5.73373
upperneck -6.51196 -21.3679 1.95238
head -1.56371 -10.7784 -0.239894
rclavicle 5.40694e-014 -1.59028e-014
rhumerus -21.2372 15.2483 -89.6406
rradius 132.481
rwrist -4.22629
rhand -32.6518 13.537
rfingers 7.12502
rthumb -5.87807 -16.3615
lclavicle 5.40694e-014 -1.59028e-014
lhumerus -25.2074 -10.1807 81.4197
lradius 138.07
lwrist 38.2105
lhand -25.2689 43.6945
lfingers 7.12502
lthumb 1.25188 -286.329
rfemur -37.7237 17.2004 8.80945
rtibia 42.067
rfoot -26.9788 2.01527
rtoes -15.0199
lfemur -40.618 0.422704 -8.44475
ltibia 49.5494
lfoot -20.663 -3.74913
ltoes -28.6067
3097
root 28.3595 16.9841 -20.6553 -157.998 57.6696 -170.02
lowerback 16.7989 -3.04318 -1.38991
upperback 5.22218 -3.70066 2.20866
thorax -3.57595 -1.67073 3.8236
lowerneck -5.91959 -16.1193 5.32285
upperneck -6.05486 -21.6545 2.3937
head -1.24923 -10.9085 -0.137475
rclavicle 6.75868e-015 3.49861e-014
rhumerus -20.8882 16.7612 -91.2175
rradius 131.328
rwrist -2.11699
rhand -35.897 14.2411
rfingers 7.12502
rthumb -9.01039 -15.5465
lclavicle 6.75868e-015 3.49861e-014
lhumerus -25.2929 -9.98558 81.3639
lradius 138.145
lwrist 38.6928
lhand -25.9703 43.0949
lfingers 7.12502
lthumb 0.574391 -286.926
rfemur -38.016 17.4326 8.5526
rtibia 41.7043
rfoot -26.7212 2.27407
rtoes -14.0676
lfemur -40.5018 0.958968 -8.76768
ltibia 49.5183
lfoot -20.7888 -2.89464
ltoes -29.0245
